<svg width="48" height="11" viewBox="0 0 48 11" fill="none" xmlns="http://www.w3.org/2000/svg">
<g clip-path="url(#clip0_6450_5869)">
<path d="M2.77087 2.57714H0V0.93457H7.53996V2.57714H4.74245V10.8167H2.77087V2.57714Z" fill="white"/>
<path d="M8.87305 0.93457H10.8446V10.8167H8.87305V0.93457Z" fill="white"/>
<path d="M17.5463 10.8167L15.5214 7.0775H14.1493V10.8167H12.1777V0.93457H15.6147C17.6795 0.93457 19.3181 1.6557 19.3181 3.92591C19.3181 5.40823 18.5721 6.32967 17.4397 6.77036L19.7443 10.8167H17.5463V10.8167ZM14.1493 5.51506H15.4282C16.6937 5.51506 17.3864 4.98089 17.3864 3.92591C17.3864 2.87093 16.6937 2.49701 15.4282 2.49701H14.1493V5.51506V5.51506Z" fill="white"/>
<path d="M21.0762 0.93457H27.1241V2.57714H23.0478V4.8607H26.5113V6.51663H23.0478V9.16076H27.2707V10.8167H21.0762V0.93457Z" fill="white"/>
<path d="M28.6035 0.93457H31.8673C33.8921 0.93457 35.4374 1.52216 35.4374 3.36503C35.4374 4.27312 34.9312 5.20791 34.092 5.50171V5.56848C35.1577 5.82221 35.9437 6.57004 35.9437 7.90546C35.9437 9.89524 34.2918 10.8167 32.1204 10.8167H28.6035V0.93457ZM31.7207 4.95418C32.973 4.95418 33.5191 4.44672 33.5191 3.65883C33.5191 2.7908 32.933 2.44359 31.7474 2.44359H30.5751V4.95418H31.7207V4.95418ZM31.9472 9.2943C33.2927 9.2943 34.0254 8.81355 34.0254 7.78527C34.0254 6.82377 33.306 6.42315 31.9472 6.42315H30.5751V9.2943H31.9472Z" fill="white"/>
<path d="M37.4629 3.33887H39.4078V10.8172H37.4629V3.33887Z" fill="white"/>
<path d="M40.9395 9.62815L45.5354 2.57714H41.3791V0.93457H47.9466V2.10974L43.364 9.16076H47.9998V10.8167H40.9395V9.62815V9.62815Z" fill="white"/>
<path d="M37.2695 1.06834C37.2695 0.427334 37.7624 0 38.4418 0C39.1212 0 39.6008 0.427334 39.6008 1.06834C39.6008 1.70934 39.1079 2.13667 38.4418 2.13667C37.7758 2.13667 37.2695 1.68263 37.2695 1.06834Z" fill="#E60013"/>
</g>
<defs>
<clipPath id="clip0_6450_5869">
<rect width="48" height="10.8169" fill="white"/>
</clipPath>
</defs>
</svg>
